<svg width="106" height="114" viewBox="0 0 106 114" fill="none" xmlns="http://www.w3.org/2000/svg">
<path d="M82.5099 6.36389V64.6845C81.6959 64.6635 80.877 64.6635 80.0582 64.6949V9.05625C80.0582 5.61484 77.7819 2.81248 74.9695 2.81248H63.8757C63.2664 2.81248 62.7352 3.25772 62.4866 3.89152C62.043 5.03866 61.6141 6.20151 61.0877 7.29626L60.9317 7.61578C60.4345 8.64244 59.5377 9.26577 58.5677 9.26577H48.2002C47.2302 9.26577 46.3334 8.63721 45.8362 7.61578L45.6802 7.29626C45.1538 6.20151 44.7249 5.03866 44.2813 3.89152C44.0327 3.25772 43.5015 2.81248 42.8873 2.81248H31.7936C28.986 2.81248 26.7049 5.60961 26.7049 9.05101V64.7211C25.8909 64.7002 25.072 64.7054 24.258 64.7316V6.36389C24.2531 2.91724 26.8511 0.120117 30.0583 0.120117H76.6998C79.9119 0.120117 82.5099 2.91724 82.5099 6.36389Z" fill="white"/>
<path d="M99.3857 71.0121C96.8657 71.5568 94.5115 72.0282 92.1767 72.573C86.8687 73.8092 81.6435 75.3073 76.5792 77.2454C75.9261 77.4968 75.2778 77.7534 74.6246 78.0206C69.9015 79.9587 65.3246 82.3106 60.9524 85.2334C58.335 86.9829 55.8637 88.9786 53.256 90.9062C46.8415 85.2334 39.7154 81.1163 32.136 78.0258C31.4877 77.7587 30.8395 77.502 30.1863 77.2558C26.0725 75.6792 21.8416 74.3906 17.5231 73.2959C14.2281 72.4578 10.899 71.7663 7.44318 70.9806C7.79412 70.7973 8.06708 70.6349 8.35466 70.5092C12.8926 68.4611 17.6254 67.3402 22.5338 66.9945C23.1089 66.9526 23.6841 66.9211 24.2544 66.9054C25.0733 66.8792 25.8921 66.874 26.7012 66.8949C27.8662 66.9211 29.0263 66.9892 30.1814 67.1149C30.4544 67.1411 30.7274 67.1726 30.9954 67.2092C31.3756 67.2564 31.7558 67.3087 32.1311 67.3716C33.1011 67.5235 34.0613 67.7068 35.0167 67.9321C35.197 67.974 35.3774 68.0159 35.5528 68.0578C36.6252 68.3249 37.6926 68.6392 38.7552 69.0006C39.2134 69.1578 39.6667 69.3202 40.12 69.4983C40.5002 69.6449 40.8852 69.7968 41.2606 69.954C41.787 70.174 42.3036 70.4044 42.8154 70.6506C43.2639 70.8654 43.7025 71.0906 44.1364 71.3263C44.7749 71.6668 45.4037 72.0335 46.0178 72.4263C48.5963 74.0554 50.9262 76.0773 52.9587 78.5601C53.0659 78.6911 53.1586 78.8482 53.2609 79.0106C53.451 78.8744 53.5582 78.8325 53.6265 78.7487C55.7419 76.1611 58.1254 74.0658 60.738 72.4054C61.3521 72.0125 61.9809 71.6459 62.6194 71.3054C63.0532 71.0697 63.4968 70.8444 63.9403 70.6297C64.8177 70.2054 65.7194 69.823 66.6407 69.4773C67.0891 69.3097 67.5473 69.1473 68.0054 68.9954C68.8389 68.7178 69.6919 68.4664 70.5547 68.2464C70.7691 68.1887 70.9885 68.1364 71.2078 68.084C71.3882 68.0421 71.5636 68.0002 71.744 67.9583C72.7091 67.7383 73.6693 67.5497 74.6295 67.3978C75.0097 67.3349 75.3899 67.2826 75.7652 67.2302C76.0382 67.1935 76.3111 67.1568 76.5841 67.1307C77.749 66.9997 78.9042 66.9107 80.0594 66.874C80.8783 66.8478 81.6971 66.8426 82.5111 66.8635C87.8874 67.0102 93.2003 68.2254 98.4206 70.5249C98.6936 70.6297 98.9617 70.7868 99.3857 71.0121Z" fill="white"/>
<path d="M49.8446 99.6381C47.0663 102.708 44.7169 105.971 42.5479 109.397C42.2164 109.92 41.6413 110.402 41.0856 110.607C40.3447 110.884 39.6428 110.518 39.2042 109.779C38.746 109.014 38.7704 108.213 39.2627 107.49C40.8663 105.128 42.465 102.76 44.1271 100.44C44.9606 99.2715 45.9257 98.2134 46.8908 97.0243C46.613 96.7834 46.3644 96.5582 46.1061 96.3486C39.1749 90.7649 31.4054 87.0039 23.2021 84.1754C16.4025 81.834 9.43726 80.2416 2.4135 78.9321C1.47765 78.7592 0.882991 78.1254 0.780632 77.2454C0.668525 76.2921 1.05846 75.3754 1.85296 75.1188C2.36476 74.9511 2.96916 74.9407 3.50045 75.0507C6.83442 75.7264 10.1733 76.3811 13.4829 77.1826C22.1882 79.283 30.6353 82.1849 38.6046 86.5796C48.6065 92.0901 56.7952 99.8057 63.0928 109.821C63.3511 110.235 63.5851 110.711 63.6728 111.193C63.8336 112.089 63.3755 112.906 62.6394 113.262C61.9229 113.608 61.0163 113.419 60.4802 112.78C60.2754 112.534 60.1097 112.251 59.9343 111.979C57.2242 107.726 54.129 103.834 50.5952 100.351C50.371 100.125 50.1419 99.9158 49.8446 99.6381Z" fill="white"/>
<path d="M103.325 73.6048C101.59 73.9505 100.083 74.2438 98.587 74.5581C87.4592 76.8995 76.6189 80.1733 66.5585 85.9666C62.1376 88.5123 58.0042 91.5137 54.2169 95.0547C53.9635 95.2904 53.7051 95.5156 53.4176 95.7775C53.2616 95.6675 53.1154 95.5889 52.9935 95.4737C45.2094 88.0828 36.1579 83.1538 26.3851 79.6128C19.2005 77.0095 11.8404 75.2024 4.37796 73.8196C4.13913 73.7776 3.91004 73.6834 3.49573 73.5629C4.37309 72.9553 5.1091 72.4262 5.8646 71.9286C6.0157 71.8291 6.23992 71.7977 6.41539 71.8291C16.0127 73.6257 25.4639 75.9986 34.4812 80.0581C40.5642 82.7976 46.3061 86.1866 51.4922 90.6023C51.9992 91.0318 52.4427 91.5504 52.974 91.938C53.1641 92.0794 53.6272 92.0899 53.788 91.9433C63.2927 83.2638 74.4937 78.3452 86.3917 75.0453C90.8857 73.7986 95.4724 72.9291 100.025 71.9286C100.41 71.8448 100.897 71.9705 101.258 72.1643C101.901 72.5257 102.486 73.0077 103.325 73.6048Z" fill="white"/>
<path d="M54.3085 96.7047C57.3062 93.8343 60.5719 91.2781 64.0472 89.0414C71.8655 84.0024 80.3174 80.6343 89.1203 78.2877C93.8239 77.0306 98.6006 76.0772 103.353 75.0296C104.942 74.6787 105.98 75.4696 106 76.8944C106.014 77.9944 105.4 78.7015 104.26 78.9529C99.9216 79.9063 95.5542 80.7443 91.2503 81.8653C82.155 84.2329 73.4058 87.5957 65.3925 92.9071C63.5111 94.1538 61.7125 95.5471 59.7872 96.9404C60.0845 97.3019 60.2941 97.5323 60.4744 97.7838C62.8043 100.989 65.1439 104.195 67.4592 107.417C67.9856 108.15 68.0392 108.983 67.5567 109.784C67.1131 110.523 66.4307 110.842 65.6655 110.617C65.2171 110.486 64.7248 110.161 64.442 109.768C62.8287 107.527 61.3567 105.159 59.6751 102.98C58.0129 100.822 56.151 98.8418 54.3085 96.7047Z" fill="white"/>
<path d="M49.9566 101.362C50.7999 102.331 51.6139 103.274 52.4717 104.264C51.7747 105.144 50.9802 106.071 50.2588 107.071C49.0208 108.789 47.8266 110.539 46.6324 112.294C45.8525 113.441 44.7315 113.776 43.8151 113.079C42.9231 112.398 42.7477 111.152 43.5324 110.041C45.487 107.281 47.4952 104.568 49.4887 101.838C49.6106 101.671 49.7714 101.55 49.9566 101.362Z" fill="white"/>
<path d="M66.639 61.8505V67.2981C65.7178 67.6438 64.8209 68.0262 63.9387 68.4504C63.4951 68.6652 63.0516 68.8904 62.6178 69.1262V61.8452C62.6178 60.2529 61.9695 58.7443 60.8387 57.7124L60.7802 57.6653L53.3421 49.7715L45.9577 57.66L45.8992 57.7072C44.7781 58.7391 44.1347 60.2476 44.1347 61.8295V69.1471C43.7009 68.9114 43.2622 68.6862 42.8138 68.4714C42.302 68.2252 41.7853 67.9947 41.2589 67.7747C40.8787 67.6176 40.4985 67.4657 40.1183 67.319V61.8243C40.1183 59.0115 41.2492 56.34 43.2184 54.4858L51.217 45.9477C51.5045 45.6387 51.8506 45.3977 52.2113 45.2406C52.5769 45.0835 52.9619 45.0049 53.3421 45.0049C53.7223 45.0049 54.1074 45.0835 54.4729 45.2406C54.8336 45.3977 55.1797 45.6335 55.4673 45.9425L63.5146 54.4753C65.5033 56.34 66.639 59.0219 66.639 61.8505Z" fill="white"/>
<path d="M75.7594 49.3421V65.051C75.3841 65.1034 75.0039 65.161 74.6237 65.2187C73.6635 65.3706 72.7033 65.5591 71.7382 65.7791V49.3421C71.7382 45.9478 70.3539 42.7212 67.946 40.5212L67.8875 40.4688L53.3087 25.0061L38.8323 40.4636L38.7738 40.516C36.3854 42.716 35.0109 45.9269 35.0109 49.3107V65.7582C34.0555 65.5329 33.0904 65.3496 32.1253 65.1977C31.75 65.1401 31.3698 65.0825 30.9896 65.0353V49.3159C30.9896 44.7064 32.8516 40.3222 36.0881 37.305L50.5986 21.8108C50.9691 21.418 51.4078 21.1142 51.8659 20.9151C52.329 20.7161 52.8164 20.6113 53.3038 20.6113C53.7913 20.6113 54.2787 20.7109 54.7417 20.9099C55.1999 21.1089 55.6337 21.4075 56.0042 21.8004L70.6122 37.2946C73.8877 40.3117 75.7594 44.7117 75.7594 49.3421Z" fill="white"/>
</svg>
